<?xml version="1.0" encoding="UTF-8"?>
<svg xmlns="http://www.w3.org/2000/svg" xmlns:xlink="http://www.w3.org/1999/xlink" width="100px" height="85px" viewBox="0 0 99 85" version="1.1">
<g id="surface1">
<rect x="0" y="0" width="99" height="85" style="fill:rgb(98.823529%,98.823529%,99.215686%);fill-opacity:1;stroke:none;"/>
<path style=" stroke:none;fill-rule:nonzero;fill:rgb(66.666667%,17.647059%,18.823529%);fill-opacity:1;" d="M 45.613281 10.539062 L 45.390625 11.03125 L 45.164062 11.410156 L 44.9375 11.898438 L 45.546875 11.636719 L 45.800781 11.523438 L 46.121094 11.296875 L 46.261719 11.003906 L 46.289062 10.539062 L 45.613281 10.539062 M 55.414062 10.878906 L 55.414062 11.558594 L 55.816406 11.503906 L 56.078125 11.503906 L 56.425781 11.558594 L 56.183594 11.171875 L 56.003906 11.105469 Z M 55.414062 10.878906 "/>
<path style=" stroke:none;fill-rule:nonzero;fill:rgb(15.686275%,15.686275%,16.862745%);fill-opacity:1;" d="M 45.613281 11.21875 L 45.109375 11.636719 L 44.582031 11.945312 L 44.261719 12.097656 L 43.585938 12.371094 L 43.25 12.515625 L 42.574219 12.769531 L 42.234375 12.871094 L 41.558594 13.117188 L 41.222656 13.269531 L 40.546875 13.570312 L 39.871094 13.828125 L 39.195312 14.042969 L 38.855469 14.148438 L 38.179688 14.335938 L 37.84375 14.441406 L 37.195312 14.789062 L 36.660156 15.328125 L 36.324219 15.980469 L 36.171875 16.660156 L 36.132812 17 L 36.011719 17.679688 L 35.917969 18.019531 L 35.703125 18.699219 L 35.476562 19.378906 L 34.914062 21.078125 L 34.691406 21.761719 L 34.578125 22.101562 L 34.332031 22.78125 L 34.0625 23.460938 L 33.917969 23.800781 L 33.683594 24.480469 L 33.589844 24.820312 L 33.515625 25.160156 L 33.386719 25.839844 L 33.320312 26.179688 L 33.160156 26.859375 L 33.066406 27.199219 L 32.992188 27.539062 L 32.90625 27.878906 L 32.804688 28.558594 L 32.785156 28.898438 L 32.773438 29.238281 L 32.773438 32.300781 L 32.765625 32.640625 L 32.746094 32.980469 L 32.613281 33.660156 L 32.492188 34 L 32.257812 34.679688 L 32.128906 35.359375 L 32.097656 36.039062 L 32.097656 36.378906 L 32.128906 37.058594 L 32.175781 37.398438 L 32.230469 37.738281 L 32.363281 38.421875 L 32.425781 39.101562 L 32.445312 39.78125 L 32.464844 40.121094 L 32.566406 40.800781 L 32.644531 41.140625 L 32.746094 41.820312 L 32.804688 42.5 L 32.851562 42.839844 L 32.980469 43.519531 L 33.085938 44.199219 L 33.113281 44.878906 L 33.113281 45.21875 L 33.140625 45.898438 L 33.1875 46.238281 L 33.253906 46.578125 L 33.449219 47.261719 L 33.648438 47.941406 L 33.761719 48.621094 L 33.789062 48.960938 L 33.890625 49.640625 L 33.996094 49.980469 L 34.285156 50.660156 L 34.566406 51.339844 L 34.800781 52.019531 L 34.90625 52.359375 L 35.007812 52.699219 L 35.082031 53.019531 L 35.195312 53.359375 L 35.222656 53.550781 L 35.476562 54.058594 L 36.152344 54.058594 L 36.332031 53.558594 L 36.640625 53.125 L 36.753906 52.964844 L 37.167969 52.699219 L 37.140625 53.210938 L 37.09375 53.398438 L 36.960938 54.058594 L 36.894531 54.398438 L 36.765625 55.078125 L 36.699219 55.421875 L 36.566406 56.082031 L 36.519531 56.269531 L 36.492188 56.78125 L 36.914062 56.65625 L 37.054688 56.535156 L 37.316406 56.335938 L 37.582031 56.089844 L 38.191406 55.550781 L 38.519531 55.289062 L 38.855469 55.003906 L 39.503906 54.390625 L 40.078125 53.71875 L 40.59375 53.039062 L 40.835938 52.699219 L 41.34375 52.019531 L 41.605469 51.679688 L 42.074219 51 L 42.441406 50.328125 L 42.59375 50.007812 L 42.910156 49.433594 L 43.222656 48.882812 L 43.351562 48.589844 L 43.472656 48.269531 L 43.726562 47.609375 L 44.054688 46.996094 L 44.414062 46.449219 L 44.582031 46.164062 L 44.871094 45.550781 L 44.996094 45.21875 L 45.125 44.878906 L 45.21875 44.539062 L 45.425781 43.859375 L 45.671875 43.179688 L 45.792969 42.839844 L 45.925781 42.160156 L 45.960938 41.480469 L 45.980469 41.140625 L 46.082031 40.460938 L 46.160156 40.121094 L 46.261719 39.441406 L 46.28125 39.101562 L 46.316406 38.421875 L 46.421875 37.738281 L 46.496094 37.398438 L 46.601562 36.71875 L 46.617188 36.378906 L 46.628906 35.699219 L 46.628906 24.820312 L 46.617188 24.140625 L 46.601562 23.800781 L 46.496094 23.121094 L 46.421875 22.78125 L 46.316406 22.101562 L 46.300781 21.761719 L 46.289062 21.078125 L 46.28125 20.398438 L 46.261719 20.058594 L 46.160156 19.378906 L 46.082031 19.039062 L 45.980469 18.359375 L 45.960938 18.019531 L 45.953125 17.339844 L 45.953125 16.660156 L 45.941406 16.320312 L 45.925781 15.980469 L 45.820312 15.300781 L 45.746094 14.960938 L 45.640625 14.28125 L 45.613281 13.601562 L 45.625 13.261719 L 45.640625 12.921875 L 45.734375 12.25 L 45.800781 11.9375 L 45.792969 11.664062 L 45.832031 11.484375 L 45.613281 11.21875 M 55.75 11.21875 L 55.75 14.960938 L 55.714844 15.640625 L 55.542969 16.320312 L 55.273438 17 L 55.039062 17.679688 L 54.867188 18.359375 L 54.757812 19.039062 L 54.71875 19.378906 L 54.605469 20.058594 L 54.519531 20.398438 L 54.445312 20.738281 L 54.269531 21.421875 L 54.164062 21.761719 L 53.957031 22.441406 L 53.863281 22.78125 L 53.75 23.460938 L 53.734375 23.800781 L 53.695312 24.480469 L 53.59375 25.160156 L 53.507812 25.5 L 53.339844 26.179688 L 53.265625 26.519531 L 53.09375 27.199219 L 52.925781 27.878906 L 52.839844 28.21875 L 52.738281 28.898438 L 52.71875 29.238281 L 52.710938 29.921875 L 52.699219 30.261719 L 52.683594 30.601562 L 52.578125 31.28125 L 52.503906 31.621094 L 52.398438 32.300781 L 52.382812 32.640625 L 52.34375 33.320312 L 52.296875 33.660156 L 52.164062 34.339844 L 52.0625 35.019531 L 52.042969 35.359375 L 52.035156 36.039062 L 52.035156 36.378906 L 52.042969 37.058594 L 52.0625 37.398438 L 52.164062 38.078125 L 52.242188 38.421875 L 52.34375 39.101562 L 52.398438 39.78125 L 52.503906 40.460938 L 52.644531 41.140625 L 52.710938 41.480469 L 52.851562 42.160156 L 52.945312 42.5 L 53.152344 43.179688 L 53.320312 43.859375 L 53.386719 44.199219 L 53.515625 44.878906 L 53.675781 45.558594 L 53.769531 45.898438 L 53.855469 46.230469 L 54.089844 46.84375 L 54.238281 47.128906 L 54.398438 47.390625 L 54.710938 47.96875 L 54.839844 48.289062 L 55.113281 48.960938 L 55.28125 49.300781 L 55.714844 49.980469 L 56.191406 50.660156 L 56.660156 51.339844 L 57.175781 51.992188 L 57.789062 52.566406 L 58.117188 52.832031 L 58.792969 53.378906 L 59.128906 53.644531 L 59.46875 53.898438 L 59.804688 54.117188 L 60.144531 54.335938 L 60.820312 54.75 L 61.15625 54.964844 L 61.832031 55.421875 L 62.507812 55.890625 L 62.847656 56.136719 L 63.503906 56.542969 L 64.027344 56.742188 L 64.535156 56.78125 L 64.546875 56.082031 L 64.5625 55.742188 L 64.667969 55.078125 L 64.742188 54.738281 L 64.808594 54.398438 L 64.9375 53.71875 L 65.015625 53.378906 L 65.109375 53.039062 L 65.34375 52.359375 L 65.484375 52.019531 L 65.613281 51.679688 L 65.90625 51 L 66.214844 50.320312 L 66.367188 49.980469 L 66.601562 49.300781 L 66.769531 48.621094 L 66.902344 47.941406 L 67.03125 47.261719 L 67.109375 46.921875 L 67.210938 46.238281 L 67.25 45.558594 L 67.265625 45.21875 L 67.378906 44.539062 L 67.472656 44.199219 L 67.6875 43.519531 L 67.914062 42.839844 L 68.019531 42.5 L 68.113281 42.160156 L 68.222656 41.480469 L 68.28125 40.460938 L 68.382812 39.78125 L 68.488281 39.101562 L 68.449219 38.421875 L 68.300781 37.738281 L 68.207031 37.398438 L 68.128906 37.058594 L 68.046875 36.71875 L 67.941406 36.039062 L 67.925781 35.699219 L 67.90625 35.019531 L 67.886719 34.679688 L 67.785156 34 L 67.707031 33.660156 L 67.605469 32.980469 L 67.585938 32.640625 L 67.578125 31.960938 L 67.566406 31.621094 L 67.546875 31.28125 L 67.445312 30.601562 L 67.371094 30.261719 L 67.265625 29.578125 L 67.25 29.238281 L 67.238281 28.558594 L 67.230469 27.878906 L 67.210938 27.539062 L 67.109375 26.859375 L 67.03125 26.519531 L 66.929688 25.839844 L 66.910156 25.5 L 66.902344 24.820312 L 66.902344 23.800781 L 66.871094 23.121094 L 66.769531 22.441406 L 66.695312 22.101562 L 66.636719 21.761719 L 66.582031 21.421875 L 66.542969 21.078125 L 66.421875 20.398438 L 66.214844 19.71875 L 66.09375 19.378906 L 65.792969 18.699219 L 65.417969 18.019531 L 65.015625 17.339844 L 64.667969 16.660156 L 64.320312 16.019531 L 63.824219 15.515625 L 63.511719 15.335938 L 62.847656 15.101562 L 62.171875 14.960938 L 61.496094 14.828125 L 61.15625 14.742188 L 60.480469 14.535156 L 60.144531 14.394531 L 59.46875 14.007812 L 59.128906 13.796875 L 58.453125 13.421875 L 58.117188 13.230469 L 57.449219 12.777344 L 56.839844 12.222656 L 56.578125 11.929688 L 56.3125 11.664062 L 56.171875 11.484375 Z M 55.75 11.21875 "/>
<path style=" stroke:none;fill-rule:nonzero;fill:rgb(66.666667%,17.647059%,18.823529%);fill-opacity:1;" d="M 45.613281 11.898438 L 45.613281 15.300781 L 45.859375 15.035156 L 45.867188 14.855469 L 45.933594 14.582031 L 45.941406 14.269531 L 45.953125 13.601562 L 45.941406 12.929688 L 45.933594 12.617188 L 45.867188 12.34375 L 45.859375 12.164062 L 45.613281 11.898438 M 56.425781 11.898438 L 56.765625 12.238281 L 56.425781 11.898438 M 43.136719 12.351562 L 43.25 12.464844 L 43.363281 12.464844 L 43.25 12.351562 L 43.136719 12.351562 M 56.765625 12.238281 L 57.101562 12.578125 L 56.765625 12.238281 M 42.574219 12.578125 L 42.910156 12.921875 L 42.574219 12.578125 M 41.222656 12.921875 L 41.558594 13.261719 L 41.222656 12.921875 M 57.777344 12.921875 L 58.117188 13.261719 L 57.777344 12.921875 M 40.769531 13.375 L 40.769531 13.488281 L 40.996094 13.488281 L 40.882812 13.375 L 40.769531 13.375 M 48.992188 13.261719 L 48.65625 13.941406 L 48.316406 13.941406 L 48.328125 14.449219 L 48.421875 14.980469 L 48.523438 15.300781 L 48.777344 15.980469 L 48.863281 16.320312 L 48.878906 16.660156 L 48.757812 17.339844 L 48.65625 17.679688 L 48.457031 18.359375 L 48.34375 19.039062 L 48.328125 19.378906 L 48.316406 20.058594 L 48.316406 21.078125 L 48.308594 21.761719 L 48.289062 22.101562 L 48.1875 22.78125 L 48.109375 23.121094 L 48.007812 23.800781 L 47.988281 24.140625 L 47.980469 24.480469 L 47.980469 34.679688 L 47.96875 35.359375 L 47.953125 35.699219 L 47.847656 36.378906 L 47.773438 36.71875 L 47.667969 37.398438 L 47.652344 37.738281 L 47.640625 38.078125 L 47.640625 48.621094 L 47.667969 49.300781 L 47.726562 49.640625 L 47.8125 49.980469 L 48.128906 50.640625 L 48.382812 50.980469 L 48.515625 51.171875 L 48.992188 51.679688 L 49.667969 51.679688 L 50.34375 51.019531 L 50.683594 50.746094 L 50.851562 50.585938 L 51.359375 50.320312 L 51.359375 44.539062 L 51.347656 43.859375 L 51.332031 43.519531 L 51.226562 42.839844 L 51.152344 42.5 L 51.046875 41.820312 L 51.019531 41.140625 L 51.019531 30.261719 L 50.992188 29.578125 L 50.945312 29.238281 L 50.8125 28.558594 L 50.710938 27.878906 L 50.691406 27.539062 L 50.683594 27.199219 L 50.683594 21.421875 L 50.671875 20.738281 L 50.65625 20.398438 L 50.550781 19.71875 L 50.417969 19.039062 L 50.371094 18.699219 L 50.34375 18.019531 L 50.34375 17.679688 L 50.355469 17.339844 L 50.382812 17 L 50.578125 16.320312 L 50.945312 15.640625 L 51.207031 14.960938 L 51.21875 14.621094 L 51.011719 13.957031 L 50.90625 13.769531 L 50.683594 13.261719 L 48.992188 13.261719 M 58.339844 13.375 L 58.453125 13.488281 L 58.566406 13.488281 L 58.453125 13.375 L 58.339844 13.375 M 39.757812 13.714844 L 39.871094 13.828125 L 39.984375 13.828125 L 39.871094 13.714844 L 39.757812 13.714844 M 59.128906 13.601562 L 59.46875 13.941406 L 59.128906 13.601562 M 38.855469 13.941406 L 39.195312 14.28125 L 38.855469 13.941406 M 59.46875 13.941406 L 59.804688 14.28125 L 59.46875 13.941406 M 37.394531 14.394531 L 37.394531 14.507812 L 37.617188 14.507812 L 37.503906 14.394531 L 37.394531 14.394531 M 59.804688 14.28125 L 60.066406 14.535156 L 60.246094 14.5625 L 60.519531 14.675781 L 60.828125 14.742188 L 61.136719 14.828125 L 61.664062 14.933594 L 62.171875 14.960938 L 61.90625 14.628906 L 61.730469 14.574219 L 61.457031 14.429688 L 60.839844 14.308594 L 60.3125 14.28125 L 59.804688 14.28125 M 55.414062 14.621094 L 55.386719 15.320312 L 55.28125 15.960938 L 55.160156 16.488281 L 55.074219 17 L 55.460938 16.734375 L 55.527344 16.554688 L 55.65625 16.28125 L 55.714844 15.96875 L 55.730469 15.335938 L 55.667969 15.0625 L 55.65625 14.882812 L 55.414062 14.621094 M 62.847656 14.960938 L 63.183594 15.300781 L 62.847656 14.960938 M 63.859375 15.300781 L 64.199219 15.640625 L 63.859375 15.300781 M 36.152344 15.640625 L 36.492188 15.980469 L 36.152344 15.640625 M 64.199219 15.640625 L 64.535156 15.980469 L 64.199219 15.640625 M 64.648438 16.546875 L 64.648438 16.660156 L 64.761719 16.773438 L 64.761719 16.546875 L 64.648438 16.546875 M 35.929688 17.566406 L 35.929688 17.792969 L 36.042969 17.792969 L 36.042969 17.679688 L 35.929688 17.566406 M 45.953125 17.339844 L 45.953125 19.378906 L 46.195312 19.117188 L 46.207031 18.9375 L 46.269531 18.664062 L 46.269531 18.058594 L 46.207031 17.785156 L 46.195312 17.605469 L 45.953125 17.339844 M 64.875 17.339844 L 65.210938 17.679688 L 64.875 17.339844 M 65.210938 17.679688 L 65.550781 18.019531 L 65.210938 17.679688 M 65.550781 18.359375 L 65.886719 18.699219 L 65.550781 18.359375 M 65.886719 19.039062 L 66.226562 19.378906 L 65.886719 19.039062 M 35.253906 19.605469 L 35.253906 19.832031 L 35.367188 19.832031 L 35.367188 19.605469 L 35.253906 19.605469 M 54.511719 19.945312 L 54.511719 20.058594 L 54.625 20.171875 L 54.625 19.945312 L 54.511719 19.945312 M 66.335938 19.945312 L 66.335938 20.058594 L 66.449219 20.171875 L 66.449219 20.058594 L 66.335938 19.945312 M 46.289062 20.398438 L 46.289062 23.121094 L 46.535156 22.855469 L 46.542969 22.675781 L 46.609375 22.402344 L 46.617188 22.089844 L 46.628906 21.761719 L 46.609375 21.117188 L 46.542969 20.84375 L 46.535156 20.664062 L 46.289062 20.398438 M 54.0625 20.398438 L 54.0625 21.761719 L 54.304688 21.496094 L 54.304688 21.324219 L 54.363281 21.078125 L 54.304688 20.664062 L 54.0625 20.398438 M 34.800781 20.738281 L 35.140625 21.078125 L 34.800781 20.738281 M 66.5625 21.078125 L 66.5625 22.441406 L 66.808594 22.175781 L 66.808594 22.003906 L 66.863281 21.761719 L 66.808594 21.34375 L 66.5625 21.078125 M 34.578125 21.648438 L 34.578125 21.875 L 34.691406 21.875 L 34.691406 21.761719 L 34.578125 21.648438 M 53.835938 22.328125 L 53.835938 22.441406 L 53.949219 22.554688 L 53.949219 22.441406 L 53.835938 22.328125 M 34.238281 22.667969 L 34.238281 22.894531 L 34.351562 22.894531 L 34.351562 22.667969 L 34.238281 22.667969 M 33.902344 23.347656 L 33.902344 23.574219 L 34.015625 23.574219 L 34.015625 23.347656 L 33.902344 23.347656 M 53.5 25.046875 L 53.5 25.160156 L 53.609375 25.273438 L 53.609375 25.046875 L 53.5 25.046875 M 53.046875 25.5 L 53.046875 26.859375 L 53.292969 26.59375 L 53.347656 26.179688 L 53.292969 25.933594 L 53.292969 25.765625 L 53.046875 25.5 M 33.226562 26.066406 L 33.226562 26.179688 L 33.339844 26.292969 L 33.339844 26.179688 L 33.226562 26.066406 M 66.902344 25.839844 L 66.902344 26.859375 L 67.136719 26.605469 L 67.136719 26.09375 L 66.902344 25.839844 M 32.886719 27.425781 L 32.886719 27.652344 L 33 27.652344 L 33 27.539062 L 32.886719 27.425781 M 52.824219 27.765625 L 52.824219 27.878906 L 52.933594 27.992188 L 52.933594 27.878906 L 52.824219 27.765625 M 67.238281 28.898438 L 67.238281 30.601562 L 67.484375 30.335938 L 67.492188 30.15625 L 67.546875 29.609375 L 67.492188 29.34375 L 67.484375 29.164062 L 67.238281 28.898438 M 46.628906 29.578125 L 46.628906 34.339844 L 46.871094 34.074219 L 46.882812 33.894531 L 46.945312 33.621094 L 46.957031 33.3125 L 46.964844 32.980469 L 46.964844 30.941406 L 46.957031 30.609375 L 46.945312 30.296875 L 46.882812 30.023438 L 46.871094 29.84375 L 46.628906 29.578125 M 52.371094 30.261719 L 52.371094 31.621094 L 52.617188 31.355469 L 52.617188 31.1875 L 52.671875 30.941406 L 52.617188 30.523438 L 52.371094 30.261719 M 67.578125 31.621094 L 67.578125 34 L 67.820312 33.734375 L 67.832031 33.554688 L 67.894531 33.28125 L 67.90625 32.648438 L 67.894531 32.335938 L 67.832031 32.0625 L 67.820312 31.882812 L 67.578125 31.621094 M 38.855469 31.960938 L 38.855469 37.058594 L 39.101562 36.796875 L 39.109375 36.617188 L 39.175781 36.34375 L 39.183594 36.03125 L 39.195312 35.699219 L 39.195312 34.339844 L 39.222656 33.660156 L 39.324219 33 L 39.449219 32.46875 L 39.53125 31.960938 L 38.855469 31.960938 M 52.035156 31.960938 L 52.035156 34.339844 L 52.277344 34.074219 L 52.289062 33.894531 L 52.351562 33.621094 L 52.363281 33.3125 L 52.351562 32.679688 L 52.289062 32.402344 L 52.277344 32.222656 L 52.035156 31.960938 M 61.15625 32.300781 L 61.382812 32.667969 L 61.484375 32.800781 L 61.730469 33.347656 L 61.796875 33.667969 L 61.824219 34 L 61.832031 34.679688 L 61.832031 36.039062 L 62.078125 35.777344 L 62.085938 35.597656 L 62.152344 35.320312 L 62.160156 35.011719 L 62.171875 34.339844 L 62.160156 33.660156 L 62.132812 33.328125 L 61.945312 32.753906 L 61.625 32.421875 Z M 61.15625 32.300781 "/>
<path style=" stroke:none;fill-rule:nonzero;fill:rgb(98.823529%,98.823529%,99.215686%);fill-opacity:1;" d="M 39.195312 32.640625 L 39.195312 35.359375 L 39.183594 35.699219 L 39.15625 36.039062 L 38.980469 36.71875 L 38.828125 37.058594 L 38.648438 37.398438 L 38.378906 38.078125 L 38.351562 38.75 L 38.539062 39.328125 L 38.800781 39.65625 L 39.195312 39.78125 L 39.222656 39.269531 L 39.269531 39.082031 L 39.324219 38.742188 L 39.402344 38.421875 L 39.503906 37.738281 L 39.523438 37.398438 L 39.53125 36.71875 L 39.53125 34 L 39.523438 33.667969 L 39.511719 33.359375 L 39.449219 33.082031 L 39.4375 32.90625 L 39.195312 32.640625 M 61.15625 32.640625 L 61.15625 33.339844 L 61.128906 34 L 61.082031 34.339844 L 60.882812 35.359375 L 60.753906 36.039062 L 60.6875 36.378906 L 60.613281 36.71875 L 60.507812 37.398438 L 60.492188 37.738281 L 60.480469 38.421875 L 60.480469 38.761719 L 60.507812 39.441406 L 60.554688 39.78125 L 60.621094 40.121094 L 60.820312 40.800781 L 60.929688 41.140625 L 61.167969 41.820312 L 61.277344 42.140625 L 61.4375 42.480469 L 61.503906 42.671875 L 61.832031 43.179688 L 62.21875 42.914062 L 62.386719 42.460938 L 62.367188 41.820312 L 62.246094 41.140625 L 62.199219 40.800781 L 62.171875 40.121094 L 62.171875 37.738281 L 62.160156 37.058594 L 62.144531 36.71875 L 62.039062 36.039062 L 61.964844 35.699219 L 61.859375 35.019531 L 61.84375 34.679688 L 61.832031 34 L 61.832031 32.640625 Z M 61.15625 32.640625 "/>
<path style=" stroke:none;fill-rule:nonzero;fill:rgb(66.666667%,17.647059%,18.823529%);fill-opacity:1;" d="M 32.4375 33.660156 L 32.773438 34 L 32.4375 33.660156 M 51.695312 34.339844 L 51.695312 38.078125 L 51.941406 37.816406 L 51.949219 37.636719 L 52.015625 37.363281 L 52.023438 37.050781 L 52.035156 36.71875 L 52.035156 36.039062 L 52.023438 35.371094 L 52.015625 35.058594 L 51.949219 34.785156 L 51.941406 34.605469 L 51.695312 34.339844 M 31.761719 35.019531 L 31.761719 37.398438 L 32.003906 37.136719 L 32.015625 36.957031 L 32.082031 36.683594 L 32.089844 36.371094 L 32.082031 35.738281 L 32.015625 35.464844 L 32.003906 35.285156 L 31.761719 35.019531 M 67.914062 35.019531 L 67.914062 37.058594 L 68.160156 36.796875 L 68.167969 36.617188 L 68.234375 36.34375 L 68.234375 35.738281 L 68.167969 35.464844 L 68.160156 35.285156 L 67.914062 35.019531 M 60.480469 35.699219 L 60.285156 36.398438 L 60.21875 36.738281 L 60.171875 37.058594 L 60.144531 37.738281 L 60.144531 39.78125 L 60.386719 39.515625 L 60.398438 39.335938 L 60.460938 39.0625 L 60.472656 38.75 L 60.492188 38.078125 L 60.507812 37.738281 L 60.613281 37.058594 L 60.726562 36.417969 L 60.707031 36.144531 L 60.714844 35.964844 L 60.480469 35.699219 M 62.171875 37.058594 L 62.171875 38.078125 L 62.40625 37.824219 L 62.40625 37.316406 L 62.171875 37.058594 M 46.289062 37.398438 L 46.289062 40.121094 L 46.535156 39.855469 L 46.542969 39.675781 L 46.609375 39.402344 L 46.617188 39.089844 L 46.628906 38.761719 L 46.609375 38.117188 L 46.542969 37.84375 L 46.535156 37.664062 L 46.289062 37.398438 M 68.253906 37.398438 L 68.253906 38.421875 L 68.488281 38.164062 L 68.488281 37.65625 L 68.253906 37.398438 M 32.097656 37.738281 L 32.097656 39.101562 L 32.34375 38.835938 L 32.34375 38.664062 L 32.398438 38.421875 L 32.34375 38.003906 L 32.097656 37.738281 M 38.179688 37.738281 L 38.519531 38.078125 L 38.179688 37.738281 M 37.957031 38.308594 L 37.957031 38.535156 L 38.070312 38.535156 L 38.070312 38.308594 L 37.957031 38.308594 M 52.035156 38.078125 L 52.035156 39.78125 L 52.277344 39.515625 L 52.289062 39.335938 L 52.34375 39.070312 L 52.289062 38.523438 L 52.277344 38.34375 L 52.035156 38.078125 M 39.195312 38.421875 L 39.195312 39.441406 L 39.429688 39.183594 L 39.429688 38.675781 L 39.195312 38.421875 M 38.179688 38.761719 L 38.519531 39.101562 L 38.179688 38.761719 M 68.363281 39.667969 L 68.363281 39.894531 L 68.476562 39.894531 L 68.476562 39.78125 L 68.363281 39.667969 M 38.519531 39.78125 L 38.519531 40.820312 L 38.507812 41.480469 L 38.492188 41.820312 L 38.386719 42.5 L 38.3125 42.820312 L 38.257812 43.160156 L 38.207031 43.351562 L 38.179688 43.859375 L 38.566406 43.59375 L 38.761719 43.140625 L 38.820312 42.832031 L 38.867188 42.160156 L 38.882812 41.820312 L 38.988281 41.140625 L 39.0625 40.820312 L 39.121094 40.480469 L 39.167969 40.289062 L 39.195312 39.78125 L 38.519531 39.78125 M 45.953125 40.121094 L 45.953125 41.820312 L 46.195312 41.554688 L 46.207031 41.375 L 46.261719 40.828125 L 46.207031 40.5625 L 46.195312 40.382812 L 45.953125 40.121094 M 60.59375 40.347656 L 60.59375 40.574219 L 60.707031 40.574219 L 60.707031 40.460938 L 60.59375 40.347656 M 52.484375 40.6875 L 52.484375 40.800781 L 52.597656 40.914062 L 52.597656 40.800781 L 52.484375 40.6875 M 32.4375 40.800781 L 32.4375 41.820312 L 32.671875 41.566406 L 32.671875 41.054688 L 32.4375 40.800781 M 62.171875 40.800781 L 62.171875 41.820312 L 62.40625 41.566406 L 62.40625 41.054688 L 62.171875 40.800781 M 60.820312 41.140625 L 61.15625 41.480469 L 60.820312 41.140625 M 52.710938 42.160156 L 52.710938 43.179688 L 52.945312 42.925781 L 52.945312 42.414062 L 52.710938 42.160156 M 67.914062 42.160156 L 68.253906 42.5 L 67.914062 42.160156 M 61.496094 42.839844 L 61.605469 43.351562 L 61.703125 43.519531 L 61.945312 44.03125 L 62.171875 44.539062 L 62.414062 44.277344 L 62.425781 44.097656 L 62.488281 43.839844 L 62.5 43.53125 L 62.507812 42.839844 L 62.105469 42.898438 L 61.84375 42.898438 L 61.496094 42.839844 M 53.046875 43.179688 L 53.046875 44.199219 L 53.28125 43.945312 L 53.28125 43.433594 L 53.046875 43.179688 M 67.6875 43.40625 L 67.6875 43.632812 L 67.800781 43.632812 L 67.800781 43.519531 L 67.6875 43.40625 M 45.277344 43.519531 L 45.277344 44.539062 L 45.511719 44.285156 L 45.511719 43.773438 L 45.277344 43.519531 M 67.238281 44.199219 L 67.238281 45.898438 L 67.484375 45.636719 L 67.492188 45.457031 L 67.546875 44.910156 L 67.492188 44.644531 L 67.484375 44.464844 L 67.238281 44.199219 M 32.773438 44.539062 L 32.773438 46.238281 L 33.019531 45.976562 L 33.027344 45.796875 L 33.085938 45.25 L 33.027344 44.984375 L 33.019531 44.804688 L 32.773438 44.539062 M 53.5 45.105469 L 53.5 45.332031 L 53.609375 45.332031 L 53.609375 45.21875 L 53.5 45.105469 M 44.601562 45.558594 L 44.9375 45.898438 L 44.601562 45.558594 M 53.722656 46.238281 L 54.0625 46.578125 L 53.722656 46.238281 M 33.226562 46.808594 L 33.226562 47.035156 L 33.339844 47.035156 L 33.339844 46.808594 L 33.226562 46.808594 M 43.925781 46.578125 L 43.785156 47.070312 L 43.671875 47.449219 L 43.585938 47.941406 L 44 47.675781 L 44.113281 47.515625 L 44.421875 47.082031 L 44.601562 46.578125 L 43.925781 46.578125 M 66.902344 46.921875 L 66.902344 47.941406 L 67.136719 47.683594 L 67.136719 47.175781 L 66.902344 46.921875 M 54.0625 47.261719 L 54.0625 47.601562 L 54.738281 47.941406 L 54.738281 47.261719 L 54.0625 47.261719 M 33.449219 47.601562 L 33.449219 49.640625 L 33.695312 49.375 L 33.703125 49.195312 L 33.769531 48.921875 L 33.769531 48.316406 L 33.703125 48.042969 L 33.695312 47.863281 L 33.449219 47.601562 M 43.25 48.28125 L 43.585938 48.621094 L 43.25 48.28125 M 54.738281 48.28125 L 55.074219 48.621094 L 54.738281 48.28125 M 66.675781 48.847656 L 66.675781 49.074219 L 66.789062 49.074219 L 66.789062 48.960938 L 66.675781 48.847656 M 42.574219 49.300781 L 42.574219 50.320312 L 42.902344 50.074219 L 42.96875 49.894531 L 43.25 49.300781 L 42.574219 49.300781 M 55.414062 49.640625 L 55.75 49.980469 L 55.414062 49.640625 M 33.789062 49.980469 L 34.125 50.320312 L 33.789062 49.980469 M 55.75 49.980469 L 56.089844 50.320312 L 55.75 49.980469 M 34.238281 50.546875 L 34.238281 50.773438 L 34.351562 50.773438 L 34.351562 50.546875 L 34.238281 50.546875 M 42.234375 50.320312 L 42.574219 50.660156 L 42.234375 50.320312 M 65.886719 50.320312 L 66.226562 50.660156 L 65.886719 50.320312 M 56.089844 50.660156 L 56.425781 51 L 56.089844 50.660156 M 41.898438 51 L 42.234375 51.339844 L 41.898438 51 M 56.425781 51 L 56.765625 51.339844 L 56.425781 51 M 34.464844 51.339844 L 34.800781 51.679688 L 34.464844 51.339844 M 41.558594 51.339844 L 41.898438 51.679688 L 41.558594 51.339844 M 65.550781 51.339844 L 65.886719 51.679688 L 65.550781 51.339844 M 41.335938 51.90625 L 41.335938 52.132812 L 41.445312 52.132812 L 41.445312 51.90625 L 41.335938 51.90625 M 57.101562 52.019531 L 57.441406 52.359375 L 57.101562 52.019531 M 65.324219 52.246094 L 65.324219 52.359375 L 65.4375 52.472656 L 65.4375 52.359375 L 65.324219 52.246094 M 34.914062 52.585938 L 34.914062 52.8125 L 35.027344 52.8125 L 35.027344 52.585938 L 34.914062 52.585938 M 40.882812 52.359375 L 41.222656 52.699219 L 40.882812 52.359375 M 57.441406 52.359375 L 57.777344 52.699219 L 57.441406 52.359375 M 36.492188 52.699219 L 36.386719 53.183594 L 36.453125 53.570312 L 36.707031 53.878906 L 37.167969 54.058594 L 37.167969 52.699219 L 36.492188 52.699219 M 40.546875 52.699219 L 40.882812 53.039062 L 40.546875 52.699219 M 58.117188 52.699219 L 58.453125 53.039062 L 58.117188 52.699219 M 40.207031 53.039062 L 40.546875 53.378906 L 40.207031 53.039062 M 58.453125 53.039062 L 58.792969 53.378906 L 58.453125 53.039062 M 64.875 53.039062 L 64.875 54.058594 L 65.109375 53.804688 L 65.109375 53.296875 L 64.875 53.039062 M 58.792969 53.378906 L 59.128906 53.71875 L 58.792969 53.378906 M 59.804688 54.058594 L 60.144531 54.398438 L 59.804688 54.058594 M 36.492188 54.398438 L 36.492188 55.761719 L 36.734375 55.496094 L 36.734375 55.324219 L 36.792969 55.078125 L 36.734375 54.664062 L 36.492188 54.398438 M 39.195312 54.398438 L 39.53125 54.738281 L 39.195312 54.398438 M 60.480469 54.398438 L 60.820312 54.738281 L 60.480469 54.398438 M 38.855469 54.738281 L 39.195312 55.078125 L 38.855469 54.738281 M 60.820312 54.738281 L 61.15625 55.078125 L 60.820312 54.738281 M 64.535156 54.738281 L 64.535156 56.78125 L 64.78125 56.515625 L 64.789062 56.335938 L 64.855469 56.0625 L 64.855469 55.457031 L 64.789062 55.183594 L 64.78125 55.003906 L 64.535156 54.738281 M 61.496094 55.078125 L 61.832031 55.421875 L 61.496094 55.078125 M 37.84375 55.421875 L 38.179688 55.761719 L 37.84375 55.421875 M 37.503906 55.761719 L 37.84375 56.101562 L 37.503906 55.761719 M 62.507812 55.761719 L 62.847656 56.101562 L 62.507812 55.761719 M 37.167969 56.101562 L 37.503906 56.441406 L 37.167969 56.101562 M 62.847656 56.101562 L 63.183594 56.441406 L 62.847656 56.101562 M 36.152344 56.441406 L 36.152344 57.460938 L 36.828125 57.121094 L 36.492188 56.441406 Z M 36.152344 56.441406 "/>
<path style=" stroke:none;fill-rule:nonzero;fill:rgb(15.686275%,15.686275%,16.862745%);fill-opacity:1;" d="M 20.609375 67.320312 L 20.609375 70.378906 L 20.105469 70.550781 L 19.917969 70.652344 L 19.257812 70.910156 L 18.582031 71.105469 L 17.90625 71.230469 L 17.230469 71.125 L 16.601562 70.683594 L 16.367188 70.371094 L 16.226562 69.699219 L 16.332031 69.378906 L 16.640625 68.851562 L 16.894531 68.339844 L 17.382812 68.480469 L 17.757812 68.59375 L 18.246094 68.679688 L 18.246094 68 L 17.90625 67.660156 L 16.21875 67.660156 L 15.796875 68.253906 L 15.675781 68.433594 L 15.203125 68.679688 L 15.214844 69.378906 L 15.234375 69.71875 L 15.375 70.378906 L 15.523438 70.710938 L 15.710938 71.03125 L 15.964844 71.316406 L 16.246094 71.570312 L 16.894531 71.910156 L 17.230469 71.996094 L 17.90625 72.070312 L 18.582031 72.070312 L 19.257812 71.976562 L 19.933594 71.703125 L 20.609375 71.257812 L 21.25 70.691406 L 21.746094 70.039062 L 22.054688 69.359375 L 22.226562 68.679688 L 22.261719 68.339844 L 22.1875 67.667969 L 22.054688 67.347656 L 21.585938 66.808594 L 20.949219 66.441406 L 20.273438 66.195312 L 19.933594 66.101562 L 19.257812 65.960938 L 18.582031 65.789062 L 18.253906 65.640625 L 17.9375 65.449219 L 17.371094 64.910156 L 16.933594 64.261719 L 16.660156 63.578125 L 16.566406 62.917969 L 16.554688 62.578125 L 16.554688 61.878906 L 16.941406 61.777344 L 17.007812 61.652344 L 17.230469 61.199219 L 17.925781 61.199219 L 18.582031 61.226562 L 19.257812 61.339844 L 19.597656 61.445312 L 20.273438 61.757812 L 20.910156 62.257812 L 21.175781 62.550781 L 21.503906 63.070312 L 21.625 63.578125 L 21.867188 63.316406 L 21.886719 63.136719 L 22.027344 62.550781 L 22.167969 61.898438 L 22.226562 61.558594 L 22.273438 61.371094 L 22.300781 60.859375 L 21.792969 60.945312 L 21.269531 61.039062 L 20.609375 61.03125 L 20.273438 60.945312 L 19.597656 60.679688 L 19.257812 60.53125 L 18.921875 60.386719 L 18.582031 60.285156 L 18.246094 60.21875 L 17.90625 60.199219 L 17.230469 60.292969 L 16.902344 60.425781 L 16.585938 60.632812 L 16.019531 61.210938 L 15.582031 61.878906 L 15.421875 62.21875 L 15.308594 62.558594 L 15.242188 63.238281 L 15.363281 63.921875 L 15.636719 64.601562 L 16.039062 65.25 L 16.304688 65.535156 L 16.585938 65.789062 L 17.230469 66.128906 L 17.570312 66.222656 L 18.246094 66.394531 L 18.582031 66.507812 L 19.257812 66.800781 L 19.578125 66.953125 L 19.917969 67.085938 L 20.105469 67.167969 Z M 20.609375 67.320312 "/>
<path style=" stroke:none;fill-rule:nonzero;fill:rgb(66.666667%,17.647059%,18.823529%);fill-opacity:1;" d="M 19.484375 60.632812 L 19.484375 60.746094 L 19.710938 60.746094 L 19.597656 60.632812 L 19.484375 60.632812 M 21.960938 60.519531 L 22.300781 60.859375 L 21.960938 60.519531 M 20.273438 60.859375 L 20.609375 61.199219 L 20.273438 60.859375 M 62.171875 60.859375 L 62.433594 61.132812 L 62.613281 61.191406 L 62.867188 61.3125 L 63.351562 61.453125 L 63.859375 61.539062 L 63.738281 61.152344 L 63.617188 61.085938 L 63.410156 60.953125 L 63.164062 60.898438 L 62.675781 60.859375 L 62.171875 60.859375 M 17.230469 61.199219 L 17.570312 61.539062 L 17.230469 61.199219 M 19.148438 61.3125 L 19.257812 61.425781 L 19.371094 61.425781 L 19.257812 61.3125 L 19.148438 61.3125 M 60.480469 61.199219 L 60.480469 61.539062 L 61.15625 61.878906 L 60.820312 61.199219 Z M 60.480469 61.199219 "/>
<path style=" stroke:none;fill-rule:nonzero;fill:rgb(15.686275%,15.686275%,16.862745%);fill-opacity:1;" d="M 60.820312 61.199219 L 60.996094 61.671875 L 61.109375 61.785156 L 61.417969 62.097656 L 61.832031 62.21875 L 61.832031 69.019531 L 61.796875 69.699219 L 61.589844 70.378906 L 61.136719 71.023438 L 60.828125 71.296875 L 60.648438 71.476562 L 60.144531 71.738281 L 60.40625 71.984375 L 60.585938 71.984375 L 60.855469 72.03125 L 61.496094 71.949219 L 62.171875 71.816406 L 62.507812 71.769531 L 63.164062 71.738281 L 63.859375 71.738281 L 63.746094 71.230469 L 63.652344 71.039062 L 63.382812 70.378906 L 63.148438 69.699219 L 62.976562 69.019531 L 62.875 68.339844 L 62.855469 68 L 62.847656 67.320312 L 62.820312 66.640625 L 62.769531 66.300781 L 62.714844 65.960938 L 62.582031 65.28125 L 62.535156 64.941406 L 62.507812 64.261719 L 62.507812 63.921875 L 62.519531 63.238281 L 62.546875 62.910156 L 62.714844 62.296875 L 62.976562 61.765625 L 63.070312 61.625 L 63.183594 61.199219 Z M 60.820312 61.199219 "/>
<path style=" stroke:none;fill-rule:nonzero;fill:rgb(66.666667%,17.647059%,18.823529%);fill-opacity:1;" d="M 70.617188 61.199219 L 70.863281 61.585938 L 71.039062 61.652344 L 71.632812 61.878906 L 71.292969 61.199219 Z M 70.617188 61.199219 "/>
<path style=" stroke:none;fill-rule:nonzero;fill:rgb(15.686275%,15.686275%,16.862745%);fill-opacity:1;" d="M 71.292969 61.199219 L 71.472656 61.671875 L 71.585938 61.785156 L 71.894531 62.097656 L 72.308594 62.21875 L 72.308594 62.917969 L 72.296875 63.257812 L 72.269531 63.570312 L 72.082031 64.148438 L 71.761719 64.476562 L 71.292969 64.601562 L 71.539062 64.84375 L 71.714844 64.855469 L 72.308594 64.941406 L 72.308594 65.640625 L 72.296875 65.980469 L 72.277344 66.300781 L 72.175781 66.980469 L 72.101562 67.320312 L 71.996094 68 L 71.980469 68.339844 L 71.96875 68.679688 L 71.96875 69.359375 L 71.980469 70.039062 L 72.007812 70.378906 L 72.074219 70.71875 L 72.316406 71.382812 L 72.417969 71.570312 L 72.644531 72.078125 L 75.347656 72.078125 L 75.6875 71.738281 L 75.6875 69.359375 L 75.441406 69.625 L 75.421875 69.804688 L 75.339844 70.078125 L 75.214844 70.699219 L 75.09375 71.230469 L 75.011719 71.738281 L 73.660156 71.738281 L 73.433594 71.285156 L 73.367188 71.164062 L 72.984375 71.058594 L 72.972656 70.359375 L 72.953125 70.019531 L 72.851562 69.359375 L 72.777344 69.019531 L 72.671875 68.339844 L 72.65625 68 L 72.644531 67.660156 L 72.644531 65.28125 L 73.132812 65.136719 L 73.507812 65.023438 L 73.996094 64.941406 L 73.734375 64.695312 L 73.574219 64.683594 L 73.300781 64.617188 L 72.644531 64.601562 L 72.730469 64.089844 L 72.851562 63.5625 L 72.953125 62.898438 L 72.972656 62.558594 L 72.984375 61.898438 L 72.984375 61.199219 Z M 71.292969 61.199219 "/>
<path style=" stroke:none;fill-rule:nonzero;fill:rgb(66.666667%,17.647059%,18.823529%);fill-opacity:1;" d="M 20.273438 61.539062 L 20.609375 61.878906 L 20.273438 61.539062 M 44.261719 61.539062 L 44.527344 61.785156 L 44.703125 61.804688 L 45.25 61.964844 L 45.511719 62.105469 L 45.6875 62.171875 L 45.953125 62.558594 L 46.1875 62.304688 L 46.160156 61.957031 L 45.839844 61.652344 L 45.578125 61.578125 L 45.285156 61.550781 L 44.957031 61.539062 L 44.261719 61.539062 M 16.554688 61.878906 L 16.554688 64.261719 L 16.800781 63.996094 L 16.808594 63.816406 L 16.875 63.542969 L 16.886719 63.230469 L 16.875 62.597656 L 16.808594 62.324219 L 16.800781 62.144531 L 16.554688 61.878906 M 20.609375 61.878906 L 20.949219 62.21875 L 20.609375 61.878906 M 21.960938 61.878906 L 21.960938 62.898438 L 22.195312 62.644531 L 22.195312 62.136719 Z M 21.960938 61.878906 "/>
<path style=" stroke:none;fill-rule:nonzero;fill:rgb(15.686275%,15.686275%,16.862745%);fill-opacity:1;" d="M 44.261719 61.878906 L 44.375 62.304688 L 44.480469 62.445312 L 44.628906 62.710938 L 44.808594 62.976562 L 45.109375 63.589844 L 45.25 64.261719 L 45.277344 64.941406 L 45.277344 69.359375 L 45.265625 69.699219 L 45.164062 70.378906 L 45.042969 70.71875 L 44.667969 71.382812 L 44.515625 71.570312 L 44.261719 72.078125 L 46.628906 72.078125 L 46.382812 71.75 L 46.207031 71.683594 L 45.613281 71.398438 L 45.613281 70.359375 L 45.625 70.039062 L 45.652344 69.699219 L 45.726562 69.371094 L 46.046875 68.792969 L 46.46875 68.460938 L 46.964844 68.339844 L 47.078125 68.851562 L 47.171875 69.039062 L 47.464844 69.699219 L 47.773438 70.378906 L 48.121094 71.058594 L 48.523438 71.738281 L 48.910156 72.421875 L 49.078125 72.761719 L 49.492188 73.429688 L 49.753906 73.742188 L 50.355469 74.214844 L 51 74.421875 L 51.527344 74.460938 L 52.035156 74.460938 L 51.78125 74.175781 L 51.621094 74.101562 L 51.394531 73.921875 L 51.152344 73.75 L 50.691406 73.296875 L 50.308594 72.742188 L 50.136719 72.4375 L 49.820312 71.871094 L 49.433594 71.324219 L 49.019531 70.710938 L 48.65625 70.039062 L 48.476562 69.699219 L 48.289062 69.359375 L 47.886719 68.679688 L 47.714844 68.339844 L 47.652344 67.660156 L 48.027344 66.980469 L 48.644531 66.300781 L 48.957031 65.980469 L 49.40625 65.449219 L 49.667969 64.941406 L 48.316406 64.941406 L 48.195312 65.449219 L 48.074219 65.640625 L 47.867188 65.980469 L 47.605469 66.300781 L 47.292969 66.628906 L 46.648438 67.207031 L 46.121094 67.539062 L 45.613281 67.660156 L 45.613281 64.601562 L 45.625 64.261719 L 45.640625 63.921875 L 45.746094 63.238281 L 45.820312 62.917969 L 45.878906 62.578125 L 45.925781 62.390625 L 45.953125 61.878906 Z M 44.261719 61.878906 "/>
<path style=" stroke:none;fill-rule:nonzero;fill:rgb(66.666667%,17.647059%,18.823529%);fill-opacity:1;" d="M 50.34375 62.21875 L 50.609375 62.378906 L 50.785156 62.34375 L 51.039062 62.332031 L 51.527344 62.25 L 52.035156 62.21875 L 52.035156 66.980469 L 52.277344 66.714844 L 52.289062 66.535156 L 52.351562 66.261719 L 52.363281 65.949219 L 52.371094 65.621094 L 52.371094 61.878906 L 51.675781 61.890625 L 51.359375 61.898438 L 51.039062 61.964844 L 50.851562 61.972656 L 50.34375 62.21875 M 62.507812 61.878906 L 62.507812 65.960938 L 62.753906 65.695312 L 62.761719 65.515625 L 62.828125 65.242188 L 62.835938 64.929688 L 62.847656 64.601562 L 62.847656 63.238281 L 62.835938 62.910156 L 62.828125 62.597656 L 62.761719 62.324219 L 62.753906 62.144531 Z M 62.507812 61.878906 "/>
<path style=" stroke:none;fill-rule:nonzero;fill:rgb(15.686275%,15.686275%,16.862745%);fill-opacity:1;" d="M 50.683594 62.21875 L 50.90625 62.589844 L 51.011719 62.71875 L 51.253906 63.269531 L 51.320312 63.589844 L 51.347656 63.921875 L 51.359375 64.261719 L 51.359375 70.039062 L 51.394531 70.683594 L 51.472656 70.945312 L 51.582031 71.15625 L 51.789062 71.285156 L 52.371094 71.398438 L 52.257812 70.890625 L 52.164062 70.699219 L 52.035156 70.359375 L 51.828125 69.699219 L 51.835938 69.019531 L 51.960938 68.339844 L 52.007812 68 L 52.035156 67.320312 L 52.035156 62.21875 Z M 50.683594 62.21875 "/>
<path style=" stroke:none;fill-rule:nonzero;fill:rgb(66.666667%,17.647059%,18.823529%);fill-opacity:1;" d="M 61.496094 62.21875 L 61.496094 63.578125 L 61.738281 63.316406 L 61.796875 62.898438 L 61.738281 62.65625 L 61.738281 62.484375 L 61.496094 62.21875 M 71.96875 62.21875 L 71.96875 64.601562 L 72.214844 64.335938 L 72.222656 64.15625 L 72.289062 63.882812 L 72.296875 63.25 L 72.289062 62.9375 L 72.222656 62.664062 L 72.214844 62.484375 L 71.96875 62.21875 M 21.398438 62.785156 L 21.398438 63.011719 L 21.511719 63.011719 L 21.511719 62.785156 L 21.398438 62.785156 M 44.601562 62.558594 L 44.9375 62.898438 L 44.601562 62.558594 M 51.132812 62.785156 L 51.132812 63.011719 L 51.246094 63.011719 L 51.246094 62.785156 L 51.132812 62.785156 M 45.613281 62.898438 L 45.613281 66.300781 L 45.625 66.628906 L 45.652344 66.941406 L 45.726562 67.207031 L 45.839844 67.414062 L 46.046875 67.546875 L 46.628906 67.660156 L 46.300781 67.160156 L 46.054688 66.613281 L 45.988281 66.289062 L 45.960938 65.960938 L 45.953125 65.621094 L 45.953125 64.261719 L 45.941406 63.929688 L 45.933594 63.617188 L 45.867188 63.34375 L 45.859375 63.164062 L 45.613281 62.898438 M 44.9375 63.238281 L 44.9375 71.058594 L 45.183594 70.796875 L 45.191406 70.617188 L 45.257812 70.34375 L 45.265625 70.03125 L 45.277344 69.699219 L 45.277344 64.601562 L 45.265625 64.269531 L 45.257812 63.957031 L 45.191406 63.683594 L 45.183594 63.503906 L 44.9375 63.238281 M 72.644531 63.578125 L 72.644531 64.601562 L 72.878906 64.34375 L 72.878906 63.835938 L 72.644531 63.578125 M 22.636719 63.921875 L 22.636719 64.601562 L 22.976562 64.941406 L 23.171875 64.714844 L 23.332031 64.46875 L 23.492188 64.363281 L 23.699219 64.296875 L 24.160156 64.261719 L 24.664062 64.261719 L 24.695312 64.960938 L 24.804688 65.601562 L 25.003906 66.300781 L 25.492188 66.074219 L 25.867188 65.847656 L 26.355469 65.621094 L 26.582031 65.023438 L 26.644531 64.84375 L 27.03125 64.601562 L 26.769531 64.390625 L 26.589844 64.457031 L 26.316406 64.515625 L 25.699219 64.875 L 25.511719 65.023438 L 25.003906 65.28125 L 25.003906 63.921875 L 22.636719 63.921875 M 32.4375 64.261719 L 32.699219 64.628906 L 32.878906 64.664062 L 33.132812 64.789062 L 33.441406 64.835938 L 34.125 64.941406 L 34.390625 64.582031 L 34.546875 64.5625 L 34.820312 64.496094 L 35.476562 64.601562 L 35.214844 64.210938 L 34.765625 64.023438 L 34.125 64.003906 L 33.46875 64.128906 L 33.132812 64.183594 L 32.945312 64.230469 L 32.4375 64.261719 M 41.558594 63.921875 L 41.804688 64.164062 L 41.980469 64.175781 L 42.574219 64.261719 L 42.328125 64.015625 L 42.152344 64.003906 L 41.558594 63.921875 M 56.425781 63.921875 L 56.691406 64.164062 L 56.867188 64.183594 L 57.414062 64.34375 L 57.675781 64.488281 L 57.851562 64.554688 L 58.117188 64.941406 L 58.792969 64.601562 L 58.792969 64.941406 L 59.128906 65.621094 L 59.335938 65.355469 L 59.203125 64.929688 L 58.753906 64.429688 L 58.117188 64.089844 L 57.460938 63.949219 L 56.933594 63.921875 Z M 56.425781 63.921875 "/>
<path style=" stroke:none;fill-rule:nonzero;fill:rgb(15.686275%,15.686275%,16.862745%);fill-opacity:1;" d="M 68.589844 68.339844 L 68.328125 68 L 68.148438 67.925781 L 67.878906 67.726562 L 67.257812 67.40625 L 66.921875 67.261719 L 66.730469 67.148438 L 66.226562 66.980469 L 66.226562 64.941406 L 66.730469 64.855469 L 67.257812 64.730469 L 67.894531 64.628906 L 68.234375 64.609375 L 68.929688 64.601562 L 69.070312 65.089844 L 69.183594 65.46875 L 69.265625 65.960938 L 69.734375 65.835938 L 70.054688 65.527344 L 70.242188 65.101562 L 70.28125 64.601562 L 69.773438 64.429688 L 69.585938 64.324219 L 68.929688 64.082031 L 68.253906 63.949219 L 67.578125 63.957031 L 67.238281 64.023438 L 66.574219 64.296875 L 66.253906 64.503906 L 65.972656 64.742188 L 65.71875 65.015625 L 65.378906 65.628906 L 65.277344 66.300781 L 65.457031 66.96875 L 65.925781 67.554688 L 66.234375 67.78125 L 66.5625 67.960938 L 67.238281 68.199219 L 67.558594 68.265625 L 68.082031 68.332031 L 68.589844 68.339844 M 22.976562 64.261719 L 23.21875 64.648438 L 23.398438 64.714844 L 23.988281 64.941406 L 23.988281 73.78125 L 23.980469 74.460938 L 23.960938 74.800781 L 23.859375 75.460938 L 23.738281 75.988281 L 23.652344 76.5 L 24.328125 76.480469 L 24.664062 76.414062 L 24.835938 76.40625 L 25.339844 76.160156 L 25.257812 75.648438 L 25.199219 75.460938 L 25.105469 75.121094 L 25.003906 74.800781 L 24.804688 74.121094 L 24.742188 73.78125 L 24.695312 73.441406 L 24.664062 72.761719 L 24.664062 70.71875 L 25.171875 70.890625 L 25.359375 70.992188 L 26.015625 71.238281 L 26.691406 71.371094 L 27.367188 71.390625 L 28.042969 71.285156 L 28.371094 71.15625 L 28.691406 70.945312 L 29.226562 70.371094 L 29.425781 70.039062 L 29.722656 69.359375 L 29.929688 68.679688 L 30.042969 68 L 30.0625 67.660156 L 30.035156 66.980469 L 29.835938 66.300781 L 29.648438 65.960938 L 29.179688 65.308594 L 28.925781 65.023438 L 28.644531 64.769531 L 28.035156 64.441406 L 27.386719 64.363281 L 27.050781 64.410156 L 26.355469 64.601562 L 26.617188 64.855469 L 26.796875 64.894531 L 27.066406 65.035156 L 27.378906 65.175781 L 28.007812 65.65625 L 28.476562 66.300781 L 28.683594 66.980469 L 28.71875 67.660156 L 28.710938 68 L 28.636719 68.679688 L 28.5625 69.019531 L 28.296875 69.699219 L 28.128906 70.019531 L 27.988281 70.359375 L 27.875 70.550781 L 27.707031 71.058594 L 27.199219 70.976562 L 26.675781 70.816406 L 26.355469 70.683594 L 25.6875 70.277344 L 25.378906 70.003906 L 24.910156 69.359375 L 24.703125 68.679688 L 24.664062 68 L 24.695312 67.320312 L 24.789062 66.640625 L 24.84375 66.300781 L 24.84375 65.621094 L 24.742188 64.960938 L 24.695312 64.769531 L 24.664062 64.261719 Z M 22.976562 64.261719 "/>
<path style=" stroke:none;fill-rule:nonzero;fill:rgb(66.666667%,17.647059%,18.823529%);fill-opacity:1;" d="M 28.042969 64.261719 L 28.382812 64.601562 Z M 28.042969 64.261719 "/>
<path style=" stroke:none;fill-rule:nonzero;fill:rgb(15.686275%,15.686275%,16.862745%);fill-opacity:1;" d="M 34.125 64.261719 L 34.25 64.683594 L 34.371094 64.828125 L 34.566406 65.089844 L 35.035156 65.648438 L 35.234375 65.96875 L 35.441406 66.621094 L 35.46875 66.808594 L 35.476562 67.320312 L 34.988281 67.179688 L 34.613281 67.066406 L 34.125 66.980469 L 34.390625 67.347656 L 34.566406 67.480469 L 35.113281 68.027344 L 35.570312 68.660156 L 35.777344 69.191406 L 35.816406 69.699219 L 35.308594 69.824219 L 34.78125 70.152344 L 34.125 70.691406 L 33.808594 70.945312 L 33.28125 71.277344 L 32.773438 71.398438 L 32.625 70.890625 L 32.550781 70.699219 L 32.332031 70.039062 L 32.25 69.699219 L 32.203125 69.359375 L 32.210938 69.019531 L 32.277344 68.679688 L 32.410156 68.339844 L 32.757812 67.679688 L 32.878906 67.488281 L 33.113281 66.980469 L 32.605469 67.074219 L 32.425781 67.148438 L 32.109375 67.300781 L 31.59375 67.746094 L 31.253906 68.347656 L 31.113281 69.019531 L 31.105469 69.359375 L 31.167969 70.039062 L 31.253906 70.378906 L 31.59375 71.050781 L 31.84375 71.363281 L 32.128906 71.625 L 32.773438 71.957031 L 33.113281 72.015625 L 33.789062 71.910156 L 34.464844 71.578125 L 34.78125 71.351562 L 35.121094 71.136719 L 35.308594 70.976562 L 35.816406 70.71875 L 35.476562 71.058594 L 35.476562 71.738281 L 36.492188 71.738281 L 36.40625 71.230469 L 36.3125 70.699219 L 36.3125 70.039062 L 36.371094 69.699219 L 36.464844 69.019531 L 36.492188 68.339844 L 36.492188 67.320312 L 36.464844 66.640625 L 36.332031 65.960938 L 36.199219 65.628906 L 36.058594 65.308594 L 35.65625 64.769531 L 35.128906 64.429688 L 34.8125 64.34375 Z M 34.125 64.261719 "/>
<path style=" stroke:none;fill-rule:nonzero;fill:rgb(66.666667%,17.647059%,18.823529%);fill-opacity:1;" d="M 37.503906 64.261719 L 37.628906 64.675781 L 37.9375 64.988281 L 38.050781 65.101562 L 38.519531 65.28125 L 38.460938 64.769531 L 38.632812 64.65625 L 38.855469 64.601562 L 39.53125 64.601562 L 39.269531 64.355469 L 39.089844 64.34375 L 38.820312 64.277344 L 38.527344 64.269531 L 38.199219 64.261719 Z M 37.503906 64.261719 "/>
<path style=" stroke:none;fill-rule:nonzero;fill:rgb(15.686275%,15.686275%,16.862745%);fill-opacity:1;" d="M 40.546875 65.28125 L 41.054688 65.195312 L 41.578125 65.070312 L 42.214844 64.96875 L 42.910156 64.941406 L 43.003906 65.640625 L 43.003906 65.980469 L 42.9375 66.300781 L 42.628906 66.960938 L 42.488281 67.148438 L 42.234375 67.660156 L 42.902344 67.546875 L 43.183594 67.414062 L 43.605469 66.941406 L 43.757812 66.628906 L 43.898438 65.980469 L 43.925781 65.449219 L 43.925781 64.941406 L 43.417969 64.714844 L 43.230469 64.609375 L 42.574219 64.363281 L 41.898438 64.296875 L 41.257812 64.429688 L 40.996094 64.5625 L 40.667969 64.863281 L 40.546875 65.28125 M 58.792969 70.71875 L 58.285156 70.75 L 58.097656 70.796875 L 57.441406 70.929688 L 56.785156 71.03125 L 56.089844 71.058594 L 55.917969 70.550781 L 55.808594 70.359375 L 55.667969 70.019531 L 55.496094 69.699219 L 55.367188 69.378906 L 55.167969 68.851562 L 55.074219 68.339844 L 59.128906 68.339844 L 59.46875 68 L 59.46875 66.960938 L 59.441406 66.300781 L 59.316406 65.640625 L 59.121094 65.109375 L 58.792969 64.601562 L 58.546875 64.863281 L 58.539062 65.042969 L 58.472656 65.316406 L 58.464844 65.628906 L 58.453125 66.300781 L 58.453125 67.660156 L 58.117188 68 L 55.074219 68 L 55.101562 67.488281 L 55.148438 67.300781 L 55.214844 66.960938 L 55.449219 66.300781 L 55.855469 65.628906 L 56.4375 65.054688 L 57.082031 64.714844 L 57.421875 64.636719 L 58.117188 64.601562 L 57.851562 64.355469 L 57.675781 64.34375 L 57.402344 64.277344 L 57.09375 64.277344 L 56.425781 64.34375 L 56.089844 64.429688 L 55.414062 64.769531 L 54.765625 65.308594 L 54.230469 65.960938 L 54.042969 66.300781 L 53.890625 66.640625 L 53.75 67.320312 L 53.75 68 L 53.863281 68.679688 L 53.96875 69.019531 L 54.25 69.699219 L 54.644531 70.378906 L 54.878906 70.710938 L 55.441406 71.285156 L 55.761719 71.496094 L 56.425781 71.703125 L 57.101562 71.730469 L 57.441406 71.703125 L 58.078125 71.511719 L 58.527344 71.191406 Z M 58.792969 70.71875 "/>
<path style=" stroke:none;fill-rule:nonzero;fill:rgb(66.666667%,17.647059%,18.823529%);fill-opacity:1;" d="M 70.390625 64.488281 L 70.390625 64.601562 L 70.503906 64.714844 L 70.503906 64.601562 L 70.390625 64.488281 M 77.375 64.261719 L 77.636719 64.589844 L 77.816406 64.636719 L 78.089844 64.769531 L 78.707031 64.855469 L 79.046875 64.863281 L 79.742188 64.941406 L 79.617188 64.554688 L 79.289062 64.355469 L 78.71875 64.269531 L 78.40625 64.261719 Z M 77.375 64.261719 "/>
<path style=" stroke:none;fill-rule:nonzero;fill:rgb(15.686275%,15.686275%,16.862745%);fill-opacity:1;" d="M 79.742188 64.261719 L 79.863281 64.683594 L 79.984375 64.828125 L 80.183594 65.089844 L 80.417969 65.355469 L 80.839844 65.96875 L 80.953125 66.300781 L 80.980469 66.640625 L 80.960938 66.980469 L 80.902344 67.660156 L 80.960938 68.339844 L 80.980469 68.679688 L 80.953125 69.019531 L 80.839844 69.359375 L 80.378906 70.011719 L 80.078125 70.304688 L 79.777344 70.570312 L 79.507812 70.832031 L 79.328125 70.976562 L 79.066406 71.398438 L 78.390625 71.398438 L 78.164062 70.890625 L 78.0625 70.699219 L 77.816406 70.039062 L 77.730469 69.359375 L 77.75 69.019531 L 77.824219 68.679688 L 77.949219 68.339844 L 78.324219 67.679688 L 78.472656 67.488281 L 78.726562 66.980469 L 78.21875 67.074219 L 77.695312 67.300781 L 77.386719 67.488281 L 76.8125 68.027344 L 76.472656 68.679688 L 76.398438 69 L 76.363281 69.53125 L 76.363281 70.039062 L 76.773438 70.304688 L 76.898438 70.484375 L 77.113281 70.757812 L 77.535156 71.363281 L 78.078125 71.835938 L 78.398438 71.957031 L 79.066406 71.957031 L 79.402344 71.84375 L 80.058594 71.476562 L 80.398438 71.296875 L 80.585938 71.183594 L 81.09375 71.058594 L 81.09375 71.738281 L 82.105469 71.738281 L 82.019531 71.230469 L 81.925781 70.699219 L 81.917969 70.378906 L 81.925781 70.039062 L 82.03125 69.359375 L 82.078125 69.019531 L 82.105469 68.339844 L 82.105469 67.660156 L 82.097656 66.980469 L 82.066406 66.640625 L 82.003906 66.300781 L 81.730469 65.621094 L 81.523438 65.289062 L 81.289062 64.976562 L 80.746094 64.503906 L 80.246094 64.296875 Z M 79.742188 64.261719 "/>
<path style=" stroke:none;fill-rule:nonzero;fill:rgb(66.666667%,17.647059%,18.823529%);fill-opacity:1;" d="M 15.542969 64.601562 L 15.878906 64.941406 Z M 15.542969 64.601562 "/>
<path style=" stroke:none;fill-rule:nonzero;fill:rgb(15.686275%,15.686275%,16.862745%);fill-opacity:1;" d="M 31.761719 64.601562 L 31.515625 65.109375 L 31.507812 65.28125 L 31.441406 65.621094 L 31.421875 66.300781 L 31.789062 66.035156 L 31.910156 65.855469 L 32.363281 65.289062 L 32.519531 65.109375 L 32.773438 64.601562 Z M 31.761719 64.601562 "/>
<path style=" stroke:none;fill-rule:nonzero;fill:rgb(98.823529%,98.823529%,99.215686%);fill-opacity:1;" d="M 32.097656 66.300781 L 32.4375 66.300781 L 32.773438 65.621094 L 33.273438 66.160156 L 33.816406 66.546875 L 34.117188 66.6875 L 34.632812 66.886719 L 35.140625 66.980469 L 35.113281 66.28125 L 35 65.640625 L 34.800781 64.941406 L 34.296875 64.855469 L 33.769531 64.761719 L 33.121094 64.796875 L 32.8125 64.929688 L 32.34375 65.347656 L 32.210938 65.628906 Z M 32.097656 66.300781 "/>
<path style=" stroke:none;fill-rule:nonzero;fill:rgb(15.686275%,15.686275%,16.862745%);fill-opacity:1;" d="M 38.179688 64.601562 L 38.386719 65.300781 L 38.472656 65.640625 L 38.566406 65.960938 L 38.726562 66.640625 L 38.828125 67.320312 L 38.847656 67.660156 L 38.855469 68 L 38.855469 68.679688 L 38.847656 69.359375 L 38.820312 69.699219 L 38.648438 70.378906 L 38.386719 71.039062 L 38.292969 71.230469 L 38.179688 71.738281 L 40.207031 71.738281 L 40.09375 71.230469 L 40 71.039062 L 39.871094 70.699219 L 39.636719 70.039062 L 39.570312 69.699219 L 39.53125 69.019531 L 39.542969 68.339844 L 39.558594 68 L 39.691406 67.320312 L 39.917969 66.640625 L 40.019531 66.300781 L 40.046875 65.640625 L 39.953125 65.109375 L 39.871094 64.601562 Z M 38.179688 64.601562 "/>
<path style=" stroke:none;fill-rule:nonzero;fill:rgb(66.666667%,17.647059%,18.823529%);fill-opacity:1;" d="M 43.25 64.601562 L 43.585938 64.941406 L 43.25 64.601562 M 47.640625 64.601562 L 47.78125 65.089844 L 47.894531 65.46875 L 47.980469 65.960938 L 48.222656 65.714844 L 48.234375 65.535156 L 48.316406 64.941406 L 49.332031 64.941406 L 49.667969 65.28125 L 49.332031 65.621094 L 49.835938 65.507812 L 50.027344 65.414062 L 50.664062 65.148438 L 50.851562 65.054688 L 51.359375 64.941406 L 51.09375 64.695312 L 50.917969 64.683594 L 50.644531 64.617188 L 50.335938 64.609375 L 49.667969 64.601562 Z M 47.640625 64.601562 "/>
<path style=" stroke:none;fill-rule:nonzero;fill:rgb(98.823529%,98.823529%,99.215686%);fill-opacity:1;" d="M 55.074219 68 L 55.769531 67.972656 L 56.109375 67.925781 L 56.765625 67.792969 L 57.421875 67.6875 L 58.117188 67.660156 L 58.453125 67.320312 L 58.453125 64.941406 L 58.117188 64.601562 L 57.609375 64.601562 L 57.082031 64.636719 L 56.765625 64.714844 L 56.4375 64.84375 L 56.125 65.054688 L 55.648438 65.628906 L 55.375 66.300781 L 55.289062 66.640625 L 55.148438 67.300781 L 55.101562 67.488281 Z M 55.074219 68 "/>
<path style=" stroke:none;fill-rule:nonzero;fill:rgb(66.666667%,17.647059%,18.823529%);fill-opacity:1;" d="M 73.996094 64.601562 L 74.242188 64.84375 L 74.417969 64.855469 L 75.011719 64.941406 L 74.765625 64.695312 L 74.585938 64.683594 Z M 73.996094 64.601562 "/>
<path style=" stroke:none;fill-rule:nonzero;fill:rgb(15.686275%,15.686275%,16.862745%);fill-opacity:1;" d="M 77.375 64.601562 L 77.132812 65.089844 L 77.121094 65.28125 L 77.039062 65.960938 L 77.449219 65.695312 L 77.5625 65.535156 L 77.871094 65.101562 L 78.050781 64.601562 Z M 77.375 64.601562 "/>
<path style=" stroke:none;fill-rule:nonzero;fill:rgb(66.666667%,17.647059%,18.823529%);fill-opacity:1;" d="M 81.09375 64.601562 L 81.429688 64.941406 L 81.09375 64.601562 M 17.230469 64.941406 L 17.570312 65.28125 Z M 17.230469 64.941406 "/>
<path style=" stroke:none;fill-rule:nonzero;fill:rgb(98.823529%,98.823529%,99.215686%);fill-opacity:1;" d="M 26.355469 64.941406 L 26.09375 65.363281 L 25.914062 65.496094 L 25.660156 65.734375 L 25.171875 66.0625 L 24.664062 66.300781 L 24.664062 68.339844 L 24.675781 68.679688 L 24.777344 69.359375 L 24.910156 69.691406 L 25.378906 70.277344 L 26.015625 70.683594 L 26.691406 70.890625 L 27.339844 70.863281 L 27.886719 70.550781 L 28.089844 70.296875 L 28.429688 69.691406 L 28.5625 69.359375 L 28.691406 68.679688 L 28.71875 68 L 28.71875 67.320312 L 28.683594 66.640625 L 28.609375 66.300781 L 28.269531 65.65625 L 27.695312 65.183594 L 27.386719 65.054688 L 26.863281 64.949219 Z M 26.355469 64.941406 "/>
<path style=" stroke:none;fill-rule:nonzero;fill:rgb(66.666667%,17.647059%,18.823529%);fill-opacity:1;" d="M 35.816406 64.941406 L 36.152344 65.28125 L 35.816406 64.941406 M 39.871094 64.941406 L 40.09375 65.535156 L 40.160156 65.714844 L 40.546875 65.960938 L 40.882812 65.621094 L 40.546875 64.941406 L 39.871094 64.941406 M 54.738281 64.941406 L 55.074219 65.28125 L 54.738281 64.941406 M 65.324219 65.167969 L 65.324219 65.28125 L 65.4375 65.394531 L 65.4375 65.28125 L 65.324219 65.167969 M 66.226562 64.941406 L 66.226562 66.980469 L 66.46875 66.714844 L 66.480469 66.535156 L 66.542969 66.261719 L 66.542969 65.65625 L 66.480469 65.382812 L 66.46875 65.203125 L 66.226562 64.941406 M 68.929688 64.941406 L 69.265625 65.28125 L 68.929688 64.941406 M 71.96875 64.941406 L 71.96875 67.320312 L 72.214844 67.054688 L 72.222656 66.875 L 72.289062 66.601562 L 72.296875 65.96875 L 72.289062 65.65625 L 72.222656 65.382812 L 72.214844 65.203125 L 71.96875 64.941406 M 76.699219 64.941406 L 76.710938 65.441406 L 76.792969 65.867188 L 76.992188 66.175781 L 77.375 66.300781 L 77.226562 65.800781 L 77.027344 65.363281 L 76.972656 65.203125 L 76.699219 64.941406 M 80.078125 64.941406 L 80.417969 65.28125 L 80.078125 64.941406 M 17.570312 65.28125 L 17.90625 65.621094 L 17.570312 65.28125 M 29.058594 65.28125 L 29.394531 65.621094 L 29.058594 65.28125 M 34.800781 65.28125 L 35.140625 65.621094 L 34.800781 65.28125 M 54.398438 65.28125 L 54.738281 65.621094 L 54.398438 65.28125 M 81.429688 65.28125 L 81.769531 65.621094 L 81.429688 65.28125 M 18.472656 65.734375 L 18.582031 65.847656 L 18.695312 65.847656 L 18.582031 65.734375 L 18.472656 65.734375 M 31.761719 65.621094 L 31.621094 66.109375 L 31.507812 66.488281 L 31.421875 66.980469 L 31.929688 67.101562 L 32.457031 67.1875 L 33.113281 67.246094 L 33.433594 67.253906 L 33.769531 67.214844 L 33.957031 67.214844 L 34.464844 66.980469 L 34.203125 66.640625 L 34.03125 66.554688 L 33.777344 66.347656 L 33.515625 66.175781 L 33.253906 65.996094 L 32.792969 65.816406 L 32.566406 65.882812 L 32.097656 66.300781 L 32.097656 65.621094 L 31.761719 65.621094 M 35.140625 65.621094 L 35.113281 66.128906 L 35.066406 66.300781 L 35 66.640625 L 34.800781 67.320312 L 35.1875 67.195312 L 35.382812 66.867188 L 35.449219 66.328125 L 35.394531 66.0625 L 35.382812 65.882812 L 35.140625 65.621094 M 42.910156 65.621094 L 42.910156 66.640625 L 43.144531 66.386719 L 43.144531 65.875 L 42.910156 65.621094 M 48.992188 65.621094 L 49.332031 65.960938 L 48.992188 65.621094 M 80.867188 65.847656 L 80.867188 65.960938 L 80.980469 66.074219 L 80.980469 65.847656 L 80.867188 65.847656 M 20.160156 66.074219 L 20.273438 66.1875 L 20.386719 66.1875 L 20.273438 66.074219 L 20.160156 66.074219 M 41.222656 65.960938 L 40.882812 66.300781 L 40.996094 66.988281 L 41.128906 67.300781 L 41.597656 67.753906 L 42.214844 67.960938 L 42.742188 68 L 43.25 68 L 42.984375 67.726562 L 42.828125 67.667969 L 42.394531 67.472656 L 41.898438 67.320312 L 41.980469 66.828125 L 42.09375 66.449219 L 42.234375 65.960938 L 41.222656 65.960938 M 59.46875 65.960938 L 59.46875 67.660156 L 59.710938 67.394531 L 59.722656 67.214844 L 59.777344 66.667969 L 59.722656 66.402344 L 59.710938 66.222656 L 59.46875 65.960938 M 69.492188 66.074219 L 69.605469 66.1875 L 69.714844 66.1875 L 69.605469 66.074219 L 69.492188 66.074219 M 18.472656 66.414062 L 18.582031 66.527344 L 18.695312 66.527344 L 18.582031 66.414062 L 18.472656 66.414062 M 20.949219 66.300781 L 21.285156 66.640625 L 20.949219 66.300781 M 78.050781 66.640625 L 78.3125 66.894531 L 78.492188 66.921875 L 78.765625 67.046875 L 79.402344 67.300781 L 80.058594 67.707031 L 80.398438 67.925781 L 80.585938 68.085938 L 81.09375 68.339844 L 80.914062 67.828125 L 80.585938 67.328125 L 80.050781 66.808594 L 79.730469 66.621094 L 79.082031 66.402344 L 78.558594 66.402344 L 78.050781 66.640625 M 55.074219 66.640625 L 55.414062 66.980469 L 55.074219 66.640625 M 46.628906 66.980469 L 46.964844 67.320312 L 46.628906 66.980469 M 47.640625 66.980469 L 47.980469 67.320312 L 47.640625 66.980469 M 66.5625 66.980469 L 66.902344 67.320312 Z M 66.5625 66.980469 "/>
<path style=" stroke:none;fill-rule:nonzero;fill:rgb(98.823529%,98.823529%,99.215686%);fill-opacity:1;" d="M 78.726562 66.980469 L 78.144531 67.679688 L 77.9375 68.019531 L 77.75 68.679688 L 77.722656 69.019531 L 77.742188 69.699219 L 77.855469 70.359375 L 78.050781 71.058594 L 78.558594 71.050781 L 79.082031 70.976562 L 79.402344 70.890625 L 80.070312 70.550781 L 80.378906 70.296875 L 80.847656 69.691406 L 81.015625 69.019531 L 80.847656 68.347656 L 80.640625 68.027344 L 80.070312 67.488281 L 79.757812 67.300781 L 79.234375 67.074219 L 78.726562 66.980469 M 32.773438 67.320312 L 32.390625 68.019531 L 32.25 68.359375 L 32.136719 69.019531 L 32.136719 69.359375 L 32.25 70.019531 L 32.445312 70.550781 L 32.773438 71.058594 L 33.46875 70.976562 L 33.808594 70.890625 L 34.453125 70.550781 L 34.765625 70.296875 L 35.027344 70.011719 L 35.234375 69.691406 L 35.414062 69.019531 L 35.328125 68.359375 L 35.1875 68.019531 L 35.128906 67.828125 L 34.800781 67.320312 Z M 32.773438 67.320312 "/>
<path style=" stroke:none;fill-rule:nonzero;fill:rgb(66.666667%,17.647059%,18.823529%);fill-opacity:1;" d="M 58.117188 67.320312 L 58.453125 67.660156 L 58.117188 67.320312 M 67.238281 67.320312 L 67.578125 67.660156 L 67.238281 67.320312 M 56.425781 67.660156 L 56.691406 67.90625 L 56.867188 67.914062 L 57.121094 67.980469 L 57.429688 67.992188 L 58.117188 68 L 57.851562 67.753906 L 57.675781 67.746094 L 57.421875 67.679688 L 57.113281 67.667969 L 56.425781 67.660156 M 15.878906 68 L 16.21875 68.339844 L 15.878906 68 M 31.085938 68 L 31.421875 68.339844 L 31.085938 68 M 35.140625 68 L 35.476562 68.339844 L 35.140625 68 M 59.128906 68 L 59.46875 68.339844 L 59.128906 68 M 66.789062 68.113281 L 66.902344 68.226562 L 67.011719 68.226562 L 66.902344 68.113281 L 66.789062 68.113281 M 68.589844 68 L 68.253906 68.679688 L 68.929688 68.679688 L 68.929688 68 L 68.589844 68 M 15.542969 68.339844 L 15.878906 68.679688 L 15.542969 68.339844 M 30.746094 68.339844 L 30.746094 70.039062 L 30.992188 69.777344 L 31 69.597656 L 31.058594 69.046875 L 31 68.785156 L 30.992188 68.605469 L 30.746094 68.339844 M 35.476562 68.339844 L 35.476562 69.699219 L 35.722656 69.433594 L 35.777344 69.019531 L 35.722656 68.773438 L 35.722656 68.605469 L 35.476562 68.339844 M 45.953125 68.339844 L 45.613281 68.679688 L 45.613281 69.699219 L 45.980469 69.445312 L 46.363281 69.085938 L 46.488281 68.933594 L 46.964844 68.679688 L 46.722656 68.433594 L 46.542969 68.425781 L 45.953125 68.339844 M 47.640625 68.339844 L 47.980469 68.679688 Z M 47.640625 68.339844 "/>
<path style=" stroke:none;fill-rule:nonzero;fill:rgb(15.686275%,15.686275%,16.862745%);fill-opacity:1;" d="M 68.929688 68.339844 L 69.152344 68.851562 L 69.386719 69.378906 L 69.464844 69.699219 L 69.351562 70.371094 L 68.890625 70.976562 L 68.582031 71.230469 L 67.933594 71.570312 L 67.40625 71.710938 L 66.902344 71.738281 L 66.777344 71.230469 L 66.667969 71.039062 L 66.488281 70.699219 L 66.121094 70.058594 L 66.007812 69.871094 L 65.886719 69.359375 L 65.632812 69.625 L 65.605469 69.804688 L 65.492188 70.078125 L 65.425781 70.371094 L 65.296875 70.890625 L 65.210938 71.398438 L 65.71875 71.511719 L 65.90625 71.609375 L 66.5625 71.871094 L 67.238281 72.042969 L 67.914062 72.078125 L 68.253906 72.070312 L 68.929688 71.964844 L 69.257812 71.835938 L 69.828125 71.363281 L 70.035156 71.050781 L 70.167969 70.71875 L 70.269531 70.039062 L 70.242188 69.371094 L 70.167969 69.058594 L 70.035156 68.792969 L 69.847656 68.585938 L 69.585938 68.453125 Z M 68.929688 68.339844 "/>
<path style=" stroke:none;fill-rule:nonzero;fill:rgb(66.666667%,17.647059%,18.823529%);fill-opacity:1;" d="M 72.644531 68.339844 L 72.644531 69.359375 L 72.878906 69.105469 L 72.878906 68.59375 L 72.644531 68.339844 M 51.695312 68.679688 L 51.695312 70.378906 L 51.941406 70.117188 L 51.949219 69.9375 L 52.007812 69.386719 L 51.949219 69.125 L 51.941406 68.945312 L 51.695312 68.679688 M 62.957031 68.90625 L 62.957031 69.019531 L 63.070312 69.132812 L 63.070312 69.019531 L 62.957031 68.90625 M 46.964844 69.019531 L 47.304688 69.359375 L 46.964844 69.019531 M 47.980469 69.019531 L 48.316406 69.359375 L 47.980469 69.019531 M 65.550781 69.019531 L 65.886719 69.359375 L 65.550781 69.019531 M 15.878906 69.359375 L 15.878906 70.378906 L 16.113281 70.125 L 16.113281 69.613281 L 15.878906 69.359375 M 16.894531 69.359375 L 17.015625 69.746094 L 17.324219 69.945312 L 17.75 70.03125 L 18.246094 70.039062 L 17.984375 69.765625 L 17.824219 69.710938 L 17.390625 69.511719 L 16.894531 69.359375 M 47.417969 69.585938 L 47.417969 69.699219 L 47.527344 69.8125 L 47.527344 69.585938 L 47.417969 69.585938 M 75.6875 69.359375 L 75.6875 71.398438 L 75.929688 71.136719 L 75.9375 70.957031 L 76.003906 70.683594 L 76.003906 70.078125 L 75.9375 69.804688 L 75.929688 69.625 L 75.6875 69.359375 M 54.0625 69.699219 L 54.398438 70.039062 L 54.0625 69.699219 M 61.496094 69.699219 L 61.496094 70.71875 L 61.730469 70.464844 L 61.730469 69.953125 L 61.496094 69.699219 M 65.210938 69.699219 L 65.210938 70.71875 L 65.445312 70.464844 L 65.445312 69.953125 L 65.210938 69.699219 M 69.265625 69.699219 L 69.265625 70.71875 L 69.5 70.464844 L 69.5 69.953125 L 69.265625 69.699219 M 75.121094 69.925781 L 75.121094 70.039062 L 75.234375 70.152344 L 75.234375 69.925781 L 75.121094 69.925781 M 20.273438 70.039062 L 20.609375 70.378906 L 20.273438 70.039062 M 54.398438 70.039062 L 54.738281 70.378906 L 54.398438 70.039062 M 58.117188 70.378906 L 58.378906 70.699219 L 58.792969 70.796875 L 59.027344 70.75 L 59.34375 70.503906 L 59.46875 70.039062 L 58.980469 70.125 L 58.605469 70.238281 L 58.117188 70.378906 M 65.886719 70.039062 L 66.226562 70.378906 L 65.886719 70.039062 M 76.699219 70.039062 L 76.785156 70.71875 L 76.792969 70.910156 L 77.039062 71.398438 L 77.253906 71.136719 L 77.207031 70.71875 L 77.074219 70.472656 L 77.027344 70.304688 L 76.699219 70.039062 M 15.203125 70.378906 L 15.542969 70.71875 L 15.203125 70.378906 M 19.933594 70.378906 L 20.273438 70.71875 L 19.933594 70.378906 M 21.285156 70.378906 L 21.625 70.71875 L 21.285156 70.378906 M 39.53125 70.378906 L 39.871094 70.71875 L 39.53125 70.378906 M 48.65625 70.378906 L 48.992188 70.71875 L 48.65625 70.378906 M 55.75 70.378906 L 56.089844 70.71875 L 55.75 70.378906 M 77.714844 70.378906 L 78.050781 70.71875 L 77.714844 70.378906 M 20.949219 70.71875 L 21.285156 71.058594 L 20.949219 70.71875 M 27.367188 70.71875 L 27.707031 71.058594 L 27.367188 70.71875 M 28.71875 70.71875 L 29.058594 71.058594 L 28.71875 70.71875 M 32.4375 70.71875 L 32.773438 71.058594 L 32.4375 70.71875 M 33.789062 70.71875 L 34.125 71.058594 L 33.789062 70.71875 M 35.140625 70.71875 L 34.800781 71.058594 L 34.980469 71.53125 L 35.308594 71.851562 L 35.542969 71.964844 L 35.992188 72.070312 L 36.492188 72.078125 L 36.246094 71.835938 L 36.070312 71.824219 L 35.476562 71.738281 L 35.476562 71.398438 L 35.816406 70.71875 L 35.140625 70.71875 M 48.992188 70.71875 L 49.332031 71.058594 L 48.992188 70.71875 M 56.089844 70.71875 L 56.425781 71.058594 L 56.089844 70.71875 M 72.984375 70.71875 L 73.320312 71.058594 L 72.984375 70.71875 M 20.609375 71.058594 L 20.949219 71.398438 L 20.609375 71.058594 M 31.421875 71.058594 L 31.761719 71.398438 L 31.421875 71.058594 M 32.773438 71.058594 L 33.019531 71.304688 L 33.195312 71.316406 L 33.789062 71.398438 L 33.542969 71.15625 L 33.367188 71.144531 L 32.773438 71.058594 M 36.605469 71.285156 L 36.605469 71.511719 L 36.71875 71.511719 L 36.71875 71.398438 L 36.605469 71.285156 M 40.320312 71.285156 L 40.320312 71.398438 L 40.433594 71.511719 L 40.433594 71.398438 L 40.320312 71.285156 M 44.601562 71.058594 L 44.9375 71.398438 L 44.601562 71.058594 M 45.613281 71.058594 L 45.953125 71.398438 L 45.613281 71.058594 M 50.683594 71.058594 L 50.804688 71.445312 L 50.925781 71.511719 L 51.132812 71.644531 L 51.695312 71.722656 L 51.996094 71.703125 L 52.257812 71.644531 L 52.464844 71.511719 L 52.589844 71.445312 L 52.710938 71.058594 L 52.203125 71.171875 L 51.695312 71.191406 L 51.378906 71.164062 L 50.683594 71.058594 M 60.820312 71.058594 L 61.15625 71.398438 L 60.820312 71.058594 M 63.523438 72.078125 L 65.550781 72.078125 L 65.550781 71.398438 L 64.875 71.316406 L 64.6875 71.304688 L 64.199219 71.058594 L 63.871094 71.304688 L 63.804688 71.484375 L 63.523438 72.078125 M 68.589844 71.058594 L 68.929688 71.398438 L 68.589844 71.058594 M 69.941406 71.058594 L 70.28125 71.398438 L 69.941406 71.058594 M 78.613281 71.171875 L 78.726562 71.285156 L 78.839844 71.285156 L 78.726562 71.171875 L 78.613281 71.171875 M 80.078125 71.058594 L 80.3125 71.417969 L 80.660156 71.722656 L 81.148438 71.976562 L 81.609375 72.070312 L 82.105469 72.078125 L 81.851562 71.796875 L 81.691406 71.722656 L 81.46875 71.550781 L 80.980469 71.269531 L 80.699219 71.164062 L 80.558594 71.097656 L 80.078125 71.058594 M 20.160156 71.511719 L 20.273438 71.625 L 20.386719 71.625 L 20.273438 71.511719 L 20.160156 71.511719 M 26.691406 71.398438 L 26.9375 71.644531 L 27.113281 71.65625 L 27.707031 71.738281 L 27.460938 71.496094 L 27.285156 71.484375 L 26.691406 71.398438 M 31.761719 71.398438 L 32.097656 71.738281 L 31.761719 71.398438 M 45.953125 71.398438 L 46.289062 71.738281 L 45.953125 71.398438 M 49.332031 71.398438 L 49.667969 71.738281 L 49.332031 71.398438 M 60.480469 71.398438 L 60.820312 71.738281 L 60.480469 71.398438 M 66.902344 71.398438 L 67.164062 71.644531 L 67.324219 71.65625 L 67.597656 71.722656 L 68.253906 71.738281 L 67.988281 71.496094 L 67.832031 71.484375 L 67.558594 71.417969 L 66.902344 71.398438 M 69.605469 71.398438 L 69.941406 71.738281 L 69.605469 71.398438 M 72.308594 71.398438 L 72.644531 71.738281 L 72.308594 71.398438 M 73.660156 71.398438 L 73.921875 71.644531 L 74.082031 71.65625 L 74.351562 71.722656 L 75.011719 71.738281 L 74.746094 71.496094 L 74.585938 71.484375 L 74.316406 71.417969 L 73.660156 71.398438 M 77.375 71.398438 L 77.714844 71.738281 L 77.375 71.398438 M 79.742188 71.398438 L 80.078125 71.738281 L 79.742188 71.398438 M 16.554688 71.738281 L 16.894531 72.078125 L 16.554688 71.738281 M 32.097656 71.738281 L 32.4375 72.078125 L 32.097656 71.738281 M 33.789062 71.738281 L 34.125 72.078125 L 33.789062 71.738281 M 46.628906 71.738281 L 46.964844 72.078125 L 46.628906 71.738281 M 61.71875 71.851562 L 61.832031 71.964844 L 61.945312 71.964844 L 61.832031 71.851562 L 61.71875 71.851562 M 69.265625 71.738281 L 69.605469 72.078125 L 69.265625 71.738281 M 77.714844 71.738281 L 78.050781 72.078125 L 77.714844 71.738281 M 17.230469 72.078125 L 17.496094 72.324219 L 17.671875 72.335938 L 17.925781 72.402344 L 18.238281 72.410156 L 18.921875 72.421875 L 18.660156 72.175781 L 18.480469 72.164062 L 18.226562 72.097656 L 17.917969 72.089844 L 17.230469 72.078125 M 24.664062 72.078125 L 24.664062 74.460938 L 24.910156 74.195312 L 24.917969 74.015625 L 24.984375 73.742188 L 24.992188 73.429688 L 24.984375 72.796875 L 24.917969 72.523438 L 24.910156 72.34375 L 24.664062 72.078125 M 48.65625 72.078125 L 48.992188 72.421875 L 48.65625 72.078125 M 67.238281 72.078125 L 67.5 72.324219 L 67.679688 72.335938 L 67.933594 72.402344 L 68.242188 72.410156 L 68.929688 72.421875 L 68.664062 72.175781 L 68.488281 72.164062 L 68.234375 72.097656 L 67.925781 72.089844 L 67.238281 72.078125 M 73.320312 72.078125 L 73.566406 72.324219 L 73.742188 72.335938 L 74.335938 72.421875 L 74.089844 72.175781 L 73.914062 72.164062 L 73.320312 72.078125 M 50.007812 72.421875 L 50.34375 72.761719 L 50.007812 72.421875 M 48.992188 72.761719 L 49.332031 73.101562 L 48.992188 72.761719 M 50.34375 73.101562 L 50.683594 73.441406 L 50.34375 73.101562 M 49.667969 73.78125 L 50.007812 74.121094 L 49.667969 73.78125 M 51.019531 73.78125 L 51.265625 74.027344 L 51.441406 74.035156 L 52.035156 74.121094 L 51.789062 73.875 L 51.613281 73.863281 L 51.019531 73.78125 M 52.035156 74.121094 L 52.371094 74.460938 L 52.035156 74.121094 M 25.117188 75.027344 L 25.117188 75.253906 L 25.230469 75.253906 L 25.230469 75.027344 L 25.117188 75.027344 M 23.3125 75.820312 L 22.976562 76.5 L 22.976562 76.839844 L 23.988281 76.839844 L 23.707031 76.246094 L 23.640625 76.066406 L 23.3125 75.820312 M 25.339844 75.820312 L 25.003906 76.5 L 25.679688 76.5 L 25.679688 75.820312 Z M 25.339844 75.820312 "/>
</g>
</svg>
